<?xml version="1.0" encoding="UTF-8"?>
<svg id="Calque_1" xmlns="http://www.w3.org/2000/svg" version="1.1" viewBox="0 0 231.5117286 78.146184">
  <!-- Generator: Adobe Illustrator 29.5.1, SVG Export Plug-In . SVG Version: 2.1.0 Build 141)  -->
  <defs>
    <style>
      .st0 {
        fill: #36a9e1;
      }

      .st1 {
        fill: #1d71b8;
      }
    </style>
  </defs>
  <g>
    <path class="st0" d="M32.5753523,60.9962986v9.8765717h4.3801801v1.2734488h-5.7339754v-11.1500205h1.3537953Z"/>
    <path class="st0" d="M47.6252018,60.9962986v1.2734488h-5.0177684v3.1862138h4.6989742v1.2751767h-4.6989742v4.1417324h5.0177684v1.2734488h-6.3715637v-11.1500205h6.3715637Z"/>
    <path class="st0" d="M56.237828,71.0318354c1.1948302,0,1.9758327-.7326218,1.9758327-1.752072,0-1.4980734-1.1948302-1.9594178-2.4691429-2.4224901-1.1153476-.3974128-2.9469022-1.1144837-2.9469022-3.1378331,0-1.6553107,1.3382444-2.8821066,3.2337306-2.8821066,1.7995888,0,2.9304873,1.1784153,3.4877292,2.3412797l-1.1620004.6686902c-.4302425-.8276553-1.0997967-1.7209702-2.4060752-1.7209702-1.2103811,0-1.7356572.70152-1.7356572,1.4185909,0,.9399676.6211735,1.5931069,2.5805913,2.2617971,1.1939662.4146916,2.819039,1.2907276,2.819039,3.3123492,0,1.9438669-1.6561746,3.1862138-3.4246615,3.1862138-1.8160037,0-3.2656964-1.3218295-3.9819033-2.8026241l1.0825179-.7326218c.7490367,1.3529314,1.6095218,2.2617971,2.9469022,2.2617971Z"/>
    <path class="st0" d="M67.8310502,71.0318354c1.1948302,0,1.9758327-.7326218,1.9758327-1.752072,0-1.4980734-1.1948302-1.9594178-2.4691429-2.4224901-1.1153476-.3974128-2.9469022-1.1144837-2.9469022-3.1378331,0-1.6553107,1.3382444-2.8821066,3.2337306-2.8821066,1.7995888,0,2.9304873,1.1784153,3.4877292,2.3412797l-1.1628644.6686902c-.4293786-.8276553-1.0989328-1.7209702-2.4052113-1.7209702-1.2103811,0-1.7356572.70152-1.7356572,1.4185909,0,.9399676.6211735,1.5931069,2.5805913,2.2617971,1.1939662.4146916,2.819039,1.2907276,2.819039,3.3123492,0,1.9438669-1.6561746,3.1862138-3.4246615,3.1862138-1.8160037,0-3.2656964-1.3218295-3.9819033-2.8026241l1.0825179-.7326218c.7490367,1.3529314,1.6095218,2.2617971,2.9469022,2.2617971Z"/>
  </g>
  <path class="st0" d="M90.6269299,55.5013291c-.0621338.0153809-.1188965.0261841-.1859131.0457764-.9478149,6.493042-7.0388184,11.5025024-7.0388184,11.5025024,0,0-5.8013306-5.3422241-6.3846436-11.8781128-.0478516-.0174561-.0880737-.0269775-.1334839-.0418091l-1.6174927,3.1784668c.4008789,8.3412476,7.9532471,15.2606201,7.9532471,15.2606201,0,0,8.2741699-6.7759399,8.8409424-15.3453369l-1.4338379-2.7221069Z"/>
  <path class="st0" d="M56.9293591,57.3052842h15.4814453l3.9931641-7.8466797h14.4306641l4.1333008,7.8466797h15.4116211L83.689613,4.9752061l-26.7602539,52.3300781ZM78.8556286,39.3716904l4.8339844-10.9287109,4.7636719,10.9287109h-9.5976562Z"/>
  <g>
    <path class="st1" d="M53.5598522,57.3052842l.6984863-1.3659058,4.2149658-8.2424316v-27.2402954h10.4533691l6.3658447-12.1972656-41.9376221.0083008c-1.352478-.0186157-3.0773315,0-5.3272705,0-9.8774414,0-18.0039062,5.1272583-18.0039062,14.0819092,0,9.4335327,8.4067383,13.3982544,13.1704102,15.1759033,7.5654297,2.8026123,9.5268555,3.8279419,9.5268555,6.5618896,0,2.5291138-2.2416992,3.8279419-5.1835938,3.8279419-4.6938477,0-8.8266602-3.0074463-11.769043-8.0656128l-9.2470703,6.5618896c3.2226562,7.1098022,11.4887695,12.7149658,21.5761719,12.7149658,6.7406006,0,13.3345337-2.5997925,16.7156982-7.6452026v5.8239136h8.7467041ZM34.6125866,28.7752549c-6.3046875-2.1875-10.7853394-2.5066528-10.661377-5.5802002.0963135-2.3886719,4.3297119-2.7384033,7.1314697-2.7384033h13.7304688v15.2488403c-2.2022705-3.2037354-5.8085938-5.4608154-10.2005615-6.9302368Z"/>
    <path class="st1" d="M222.4347912,55.9393784l2.335022-4.5662231-8.2670898-12.0717773c6.375-2.6621094,9.387207-7.9863281,9.387207-14.6411133,0-9.5976562-6.3745117-16.3925781-19.824707-16.3925781h-79.0588379c-13.4501953,0-19.8251953,6.7949219-19.8251953,16.3925781,0,6.6547852,3.0117188,11.9790039,9.3867188,14.6411133l-6.8794556,10.0459595,3.3635864,6.5949097.6951904,1.3630371h6.3939209l9.5966797-16.1826172h2.9423828v16.1826172h13.5908203V20.4566514h13.5396729v36.8486328h13.6601562V20.4566514h13.3297119v36.8486328h13.590332v-16.1826172h2.9418945l9.5976562,16.1826172h8.8058472l.6984863-1.3659058ZM132.6802135,30.6846787h-4.5537109c-4.3427734,0-6.7246094-1.9614258-6.7246094-5.4643555,0-3.5024414,2.3818359-5.4638672,6.7246094-5.4638672h4.5537109v10.9282227ZM204.9441296,30.6846787h-4.5532227v-10.9282227h4.5532227c4.3432617,0,6.7250977,1.9614258,6.7250977,5.4638672,0,3.5029297-2.3818359,5.4643555-6.7250977,5.4643555Z"/>
  </g>
</svg>