<?xml version="1.0" encoding="utf-8"?>
<!-- Generator: Adobe Illustrator 22.1.0, SVG Export Plug-In . SVG Version: 6.00 Build 0)  -->
<svg version="1.1" id="Calque_2" xmlns="http://www.w3.org/2000/svg" xmlns:xlink="http://www.w3.org/1999/xlink" x="0px" y="0px"
	 viewBox="0 0 325 202.5" style="enable-background:new 0 0 325 202.5;" xml:space="preserve">
<style type="text/css">
	.st0{fill:url(#SVGID_1_);}
	.st1{opacity:0.5;fill:url(#SVGID_2_);}
	.st2{fill:url(#SVGID_3_);}
	.st3{fill:#AB9892;}
	.st4{fill:#F1EBEA;}
	.st5{fill:url(#SVGID_4_);}
	.st6{fill:url(#SVGID_5_);}
	.st7{fill:url(#SVGID_6_);}
	.st8{fill:#2C2664;}
	.st9{fill:none;stroke:#AB9892;stroke-miterlimit:10;}
</style>
<linearGradient id="SVGID_1_" gradientUnits="userSpaceOnUse" x1="164.43709" y1="64.79754" x2="164.43709" y2="30.30388">
	<stop  offset="0" style="stop-color:#DFD4CF"/>
	<stop  offset="0.99456" style="stop-color:#C2B3AE"/>
</linearGradient>
<path class="st0" d="M140.498,34.52481l2.40929-7.7096c0.03871-0.1241,0.12971-0.22521,0.24901-0.2768l23.17659-10.0223
	c0.10831-0.0468,0.1936-0.1345,0.2374-0.24411l1.45331-3.63319c0.0966-0.2415,0.3766-0.349,0.6107-0.2357
	c3.2511,1.574,23.457,12.8016,19.16739,46.96c-0.06039,0.4807-0.3201,0.9145-0.702,1.2128
	c-3.7101,2.8974-7.2258,7.2282-6.9554,12.7418c0.01271,0.25719-0.185,0.4752-0.4425,0.4752h-32.5694
	c-0.14938,0-0.2872-0.07291-0.3703-0.197c-0.49159-0.7336-2.3425-3.32091-4.67459-4.4041
	c-0.30321-0.14081-0.3649-0.54041-0.1051-0.75081c2.8233-2.28659,14.70869-12.64279,17.7851-27.23919
	c0.0349-0.1657-0.02649-0.3406-0.1573-0.448c-4.4097-3.6236-9.373-5.5705-18.6848-5.6509
	C140.62549,35.10031,140.40849,34.81121,140.498,34.52481z"/>
<linearGradient id="SVGID_2_" gradientUnits="userSpaceOnUse" x1="181.01138" y1="43.07541" x2="152.10732" y2="43.07541">
	<stop  offset="0" style="stop-color:#FFFFFF"/>
	<stop  offset="0.99456" style="stop-color:#C2B3AE"/>
</linearGradient>
<path class="st1" d="M140.498,34.52481l2.40929-7.7096c0.03871-0.1241,0.12971-0.22521,0.24901-0.2768l23.17659-10.0223
	c0.10831-0.0468,0.1936-0.1345,0.2374-0.24411l1.45331-3.63319c0.0966-0.2415,0.3766-0.349,0.6107-0.2357
	c3.2511,1.574,23.457,12.8016,19.16739,46.96c-0.06039,0.4807-0.3201,0.9145-0.702,1.2128
	c-3.7101,2.8974-7.2258,7.2282-6.9554,12.7418c0.01271,0.25719-0.185,0.4752-0.4425,0.4752h-32.5694
	c-0.14938,0-0.2872-0.07291-0.3703-0.197c-0.49159-0.7336-2.3425-3.32091-4.67459-4.4041
	c-0.30321-0.14081-0.3649-0.54041-0.1051-0.75081c2.8233-2.28659,14.70869-12.64279,17.7851-27.23919
	c0.0349-0.1657-0.02649-0.3406-0.1573-0.448c-4.4097-3.6236-9.373-5.5705-18.6848-5.6509
	C140.62549,35.10031,140.40849,34.81121,140.498,34.52481z"/>
<linearGradient id="SVGID_3_" gradientUnits="userSpaceOnUse" x1="178.33707" y1="89.69541" x2="154.37852" y2="89.69541">
	<stop  offset="0" style="stop-color:#DFD4CF"/>
	<stop  offset="0.98694" style="stop-color:#C2B3AE"/>
</linearGradient>
<path class="st2" d="M184.83148,96.90251c0,0-0.07579-2.42381-1.45509-7.2071c-1.3793-4.7833-3.11771-7.2071-3.11771-7.2071h-33.45
	c0,0-1.73839,2.4238-3.11769,7.2071c-1.3793,4.78329-1.45511,7.2071-1.45511,7.2071H184.83148z"/>
<path class="st3" d="M142.23589,96.87021c0,0,0.6656-0.03921,1.83031-0.1079c1.1647-0.0451,2.8286-0.1521,4.8253-0.2042
	c1.99669-0.0489,4.3261-0.138,6.8219-0.1758c2.4959-0.04531,5.1581-0.0562,7.8203-0.06431
	c2.66231,0.01051,5.32449,0.01951,7.82031,0.06981c2.49588,0.0317,4.82529,0.13519,6.82199,0.18629
	c1.9966,0.0503,3.66049,0.16801,4.82529,0.2149c1.16472,0.0722,1.8302,0.11351,1.8302,0.11351s-0.66548,0.0412-1.8302,0.1134
	c-1.16479,0.0469-2.82869,0.1646-4.82529,0.2149c-1.9967,0.0511-4.32611,0.1546-6.82199,0.1864
	c-2.49582,0.0502-5.158,0.0592-7.82031,0.0697c-2.6622-0.0081-5.3244-0.019-7.8203-0.0643
	c-2.4958-0.0378-4.82521-0.1268-6.8219-0.1758c-1.9967-0.052-3.6606-0.1591-4.8253-0.2042
	c-1.1647-0.0687-1.83031-0.1079-1.83031-0.1079V96.87021z"/>
<path class="st4" d="M180.25868,82.52061c0,0-0.5226,0.0486-1.43719,0.1079c-0.9147,0.0476-2.22141,0.1463-3.78929,0.21
	c-3.136,0.1394-7.3172,0.23549-11.4985,0.2343c-4.1812-0.0037-8.3625-0.1005-11.4984-0.2492
	c-1.56801-0.0641-2.8746-0.1719-3.78929-0.2218c-0.91472-0.0615-1.43732-0.11349-1.43732-0.11349s0.5226-0.0519,1.43732-0.1134
	c0.91469-0.05,2.22128-0.1577,3.78929-0.2218c3.13589-0.1488,7.3172-0.2456,11.4984-0.2492
	c4.1813-0.0012,8.3625,0.0949,11.4985,0.2343c1.56789,0.06371,2.87459,0.1623,3.78929,0.21
	c0.9146,0.0593,1.43719,0.1079,1.43719,0.1079V82.52061z"/>
<linearGradient id="SVGID_4_" gradientUnits="userSpaceOnUse" x1="176.97296" y1="78.0862" x2="155.2222" y2="78.0862">
	<stop  offset="0" style="stop-color:#DFD4CF"/>
	<stop  offset="0.98694" style="stop-color:#C2B3AE"/>
</linearGradient>
<path class="st5" d="M182.827,75.701c0,0,0.24049,0.73841-0.43051,2.26741c-0.7164,1.6327-2.1378,2.503-2.1378,2.503h-33.45
	c0,0-1.4213-0.8703-2.1378-2.503c-0.67088-1.529-0.4305-2.26741-0.4305-2.26741H182.827z"/>
<path class="st3" d="M180.25879,80.50361c0,0-0.52271,0.0486-1.43739,0.1079c-0.91461,0.0477-2.22121,0.14629-3.7892,0.21
	c-3.136,0.1394-7.3172,0.23549-11.4985,0.2343c-4.1812-0.0036-8.3625-0.1004-11.4984-0.2492
	c-1.56801-0.0641-2.8746-0.1718-3.78929-0.2218c-0.91461-0.0615-1.43732-0.1134-1.43732-0.1134s0.52271-0.05199,1.43732-0.11349
	c0.91469-0.05,2.22128-0.1577,3.78929-0.2218c3.13589-0.1488,7.3172-0.2455,11.4984-0.2492
	c4.1813-0.0012,8.3625,0.0949,11.4985,0.2343c1.56799,0.0637,2.87459,0.1623,3.7892,0.21
	c0.91469,0.0593,1.43739,0.1079,1.43739,0.1079V80.50361z"/>
<path class="st4" d="M144.24049,75.66881c0,0,0.60289-0.0392,1.6579-0.1079c1.0551-0.0451,2.5625-0.1522,4.3712-0.2042
	c1.80879-0.049,3.9189-0.13799,6.17979-0.1758c2.261-0.0453,4.6727-0.0562,7.0843-0.0643c2.4117,0.0105,4.8233,0.0195,7.0843,0.0697
	c2.26089,0.0318,4.37109,0.1353,6.17989,0.1864c1.8087,0.05029,3.31601,0.168,4.37112,0.2149
	c1.05508,0.0722,1.65799,0.11339,1.65799,0.11339s-0.60291,0.04131-1.65799,0.11351c-1.05511,0.04691-2.56242,0.1646-4.37112,0.2148
	c-1.80879,0.0512-3.91899,0.15469-6.17989,0.1864c-2.261,0.05029-4.67261,0.0593-7.0843,0.0698
	c-2.41161-0.0081-4.8233-0.019-7.0843-0.0643c-2.26089-0.0378-4.371-0.1269-6.17979-0.1758
	c-1.8087-0.0521-3.3161-0.1591-4.3712-0.2042c-1.05501-0.0687-1.6579-0.1079-1.6579-0.1079V75.66881z"/>
<linearGradient id="SVGID_5_" gradientUnits="userSpaceOnUse" x1="173.66422" y1="40.63616" x2="156.26009" y2="40.63616">
	<stop  offset="0" style="stop-color:#DFD4CF"/>
	<stop  offset="0.98694" style="stop-color:#C2B3AE"/>
</linearGradient>
<path class="st6" d="M168.41429,12.36481c-0.1671,0.0095-0.32361,0.1063-0.3907,0.274l-1.45331,3.63319
	c-0.04379,0.10961-0.12909,0.19731-0.2374,0.24411l-23.17659,10.0223c-0.11929,0.0517-0.2103,0.1527-0.24901,0.2768l-2.40929,7.7096
	c-0.08951,0.2864,0.12749,0.5755,0.42749,0.5781c9.31169,0.0804,14.27499,2.0273,18.68469,5.6508
	c0.13081,0.1075,0.1922,0.2825,0.15721,0.4481c-3.07631,14.5964-14.9617,24.9526-17.785,27.23919
	c-0.1508,0.12211-0.1821,0.3045-0.1319,0.46651C174.28229,68.52171,190.82001,28.67091,168.41429,12.36481z"/>
<linearGradient id="SVGID_6_" gradientUnits="userSpaceOnUse" x1="158.61235" y1="52.36383" x2="158.61235" y2="40.41151">
	<stop  offset="0" style="stop-color:#DFD4CF"/>
	<stop  offset="0.98694" style="stop-color:#C2B3AE"/>
</linearGradient>
<path class="st7" d="M159.7674,41.20181c-3.07631,14.5964-14.9617,24.9526-17.785,27.23919
	c-0.05539,0.04491-0.0889,0.1011-0.1158,0.15891c-0.0076,0.0176-0.01781,0.0345-0.02271,0.0529
	c-0.0136,0.04419-0.0152,0.0898-0.0143,0.1354c0.00211,0.0402,0.0088,0.0804,0.0209,0.1193
	c17.22069-0.2048,29.9599-11.5367,34.7675-24.5623c-11.11041-13.104-31.0903-10.7803-36.01131-9.3899l0.0002,0.0002
	c0.0392,0.0414,0.0853,0.0764,0.1368,0.1023c0.05571,0.0253,0.1156,0.0445,0.18181,0.0451
	c9.31169,0.0804,14.27499,2.0273,18.68469,5.6508C159.741,40.86121,159.80238,41.03621,159.7674,41.20181z"/>
<path class="st4" d="M176.59341,44.36606c-2.32074-2.29111-4.89938-4.24194-7.73352-5.73599
	c-2.82953-1.50391-5.89902-2.50735-9.02295-3.19257c-3.12808-0.69321-6.33719-1.02335-9.55746-1.11966
	c-0.80591-0.02716-1.61285-0.04492-2.41959-0.01474c-0.80838,0.00262-1.61429,0.0491-2.42087,0.10577
	c-1.61673,0.07886-3.23004,0.24734-4.83234,0.54645c3.10205-1.04956,6.39709-1.40912,9.66992-1.53848
	c3.2821-0.11108,6.58508,0.18402,9.81085,0.87897c3.20969,0.72736,6.39108,1.79892,9.21588,3.53564
	c0.73813,0.37131,1.37421,0.91763,2.06305,1.36676c0.33478,0.2403,0.6825,0.46188,1.00516,0.71692l0.92703,0.81815
	c1.26611,1.05585,2.30585,2.34048,3.34399,3.59109L176.59341,44.36606z"/>
<path class="st4" d="M141.84889,68.87531c0,0,0.3148-0.0262,0.90511-0.0753c0.58769-0.06259,1.4614-0.09139,2.55219-0.24239
	c1.0872-0.17561,2.41161-0.3224,3.8952-0.7147c0.37221-0.0866,0.7563-0.17591,1.1517-0.2678
	c0.39211-0.1044,0.78731-0.2429,1.19681-0.3676c0.81619-0.2602,1.68529-0.4951,2.55011-0.86551
	c0.87778-0.3326,1.78868-0.68459,2.68918-1.14719c0.4543-0.2211,0.92282-0.4321,1.38571-0.671
	c0.4525-0.2589,0.91199-0.52161,1.37779-0.7881c0.95032-0.5,1.832-1.1688,2.77431-1.7809
	c0.46719-0.31281,0.89549-0.6907,1.3582-1.0292c0.4528-0.3519,0.92819-0.68461,1.35519-1.0845
	c1.8008-1.4914,3.4568-3.2594,5.026-5.1394c1.5242-1.9212,2.886-4.0124,4.05969-6.2053c1.1456-2.208,2.0914-4.5157,2.7946-6.8606
	c0.68701-2.351,1.07091-4.7392,1.23471-7.0606c0.1487-2.3269-0.0276-4.5798-0.3477-6.6899
	c-0.22481-1.0426-0.39951-2.0714-0.7332-3.0222c-0.25949-0.9753-0.6438-1.8686-1.004-2.7315
	c-0.3419-0.8715-0.83191-1.6283-1.20471-2.39661c-0.43849-0.73049-0.89609-1.40059-1.3051-2.04559
	c-0.4745-0.5985-0.91849-1.1585-1.3291-1.67641c-0.41869-0.51259-0.873-0.921-1.2471-1.32439
	c-0.7417-0.8179-1.44659-1.3293-1.88199-1.7304c-0.44881-0.387-0.6882-0.5934-0.6882-0.5934s0.25299,0.1891,0.72729,0.5434
	c0.459,0.3727,1.2155,0.8273,1.99942,1.6162c0.39778,0.386,0.87918,0.7764,1.32968,1.2721
	c0.444,0.5037,0.9241,1.0484,1.43719,1.6304c0.4494,0.6319,0.95212,1.2917,1.43971,2.01609
	c0.4169,0.76551,0.93689,1.53331,1.31929,2.414c0.3987,0.87331,0.8233,1.78161,1.1234,2.77571
	c0.37451,0.9705,0.59041,2.0219,0.8562,3.0931c0.4073,2.1634,0.6656,4.496,0.52011,6.9034
	c-0.14151,2.401-0.51181,4.8724-1.19341,7.3063c-0.7029,2.4249-1.6353,4.8251-2.8157,7.1043
	c-1.2308,2.251-2.6537,4.3911-4.24048,6.3527c-1.63182,1.92049-3.35191,3.72049-5.21622,5.2364
	c-0.91431,0.7757-1.8779,1.4636-2.82278,2.1233c-0.98601,0.6012-1.90852,1.2564-2.89711,1.741
	c-0.48431,0.2582-0.96211,0.51279-1.4328,0.7636c-0.4805,0.2304-0.966,0.4323-1.43631,0.6442
	c-0.93289,0.444-1.873,0.77621-2.77719,1.08851c-0.8927,0.3449-1.78041,0.5753-2.6237,0.792
	c-0.422,0.1063-0.8287,0.2264-1.2312,0.3127c-0.4053,0.0736-0.799,0.1451-1.1805,0.2144
	c-1.51561,0.322-2.87151,0.4065-3.97371,0.5286c-1.10349,0.10519-1.97348,0.0579-2.56529,0.0871
	c-0.59219,0.01-0.9081,0.0154-0.9081,0.0154L141.84889,68.87531z"/>
<g>
	<path class="st8" d="M24.77002,129.27191l-1.40723-1.1059c-4.8252-3.76959-6.13177-5.5791-6.13177-8.4444
		c0-3.66888,2.71375-5.83002,6.18256-5.83002c4.62402,0,5.98145,2.11078,6.28223,2.66351
		c0.30182,0.55328,0.60352,1.91022,0.65332,2.51318c0.05078,0.4024,0.10059,0.65332,0.40234,0.65332
		c0.25195,0,0.35156-0.3515,0.35156-1.1557c0-3.41803,0.20117-5.07672,0.20117-5.3277c0-0.2514-0.10059-0.35199-0.50201-0.35199
		c-0.40228,0-0.80457-0.05029-1.7597-0.25153c-1.25586-0.30121-2.71387-0.50238-4.67377-0.50238
		c-6.38385,0-10.4043,3.66888-10.4043,9.0473c0,3.41748,1.20599,6.53418,6.53406,10.9068l2.26184,1.85986
		c4.3222,3.5683,5.78015,5.5791,5.78015,9.0473c0,3.2168-2.36224,6.68463-7.18744,6.68463
		c-3.36816,0-6.68555-1.40723-7.43945-5.12653c-0.15039-0.7041-0.15039-1.40771-0.15039-1.8598
		c0-0.4024-0.05078-0.5528-0.35156-0.5528c-0.25195,0-0.35254,0.25104-0.40234,0.8042
		c-0.05078,0.8042-0.25201,2.81451-0.25201,5.3277c0,1.35693,0.05084,1.55811,0.75391,1.9101
		c2.06165,1.00488,4.37311,1.35693,6.73541,1.35693c2.71478,0,5.42871-0.60303,7.58978-2.11084
		c3.46783-2.46289,4.27252-6.2832,4.27252-8.34369C32.10889,137.0625,30.70172,133.94629,24.77002,129.27191z"/>
	<path class="st8" d="M72.81787,112.48431c-0.20117,0-0.6543,0.15039-1.4082,0.25098
		c-0.80365,0.15094-1.95996,0.25153-3.56836,0.25153H48.99268c-0.6026,0-2.5127-0.10059-3.9707-0.25153
		c-1.35651-0.10059-1.85938-0.60297-2.211-0.60297c-0.20111,0-0.40228,0.65326-0.50287,0.95508
		c-0.10059,0.40179-1.10553,4.72461-1.10553,5.22699c0,0.30182,0.10065,0.4527,0.25104,0.4527
		c0.20117,0,0.35156-0.10059,0.50287-0.50299c0.15039-0.3515,0.30182-0.70361,0.85449-1.55811
		c0.80371-1.20599,2.00983-1.55811,5.12701-1.6084c2.46191-0.05029,4.97559-0.05029,7.43848-0.10059v21.26129
		c0,4.8252,0,8.7959-0.25098,10.90668c-0.20117,1.45801-0.45312,2.56354-1.45801,2.76465
		c-0.45221,0.10059-1.05566,0.20117-1.50781,0.20117c-0.30176,0-0.4024,0.15039-0.4024,0.30133
		c0,0.3017,0.25201,0.40228,0.80475,0.40228c1.50775,0,4.67377-0.15082,4.92578-0.15082c0.25098,0,3.41699,0.15082,6.18158,0.15082
		c0.5528,0,0.80475-0.15082,0.80475-0.40228c0-0.15094-0.10065-0.30133-0.40234-0.30133c-0.45221,0-1.55859-0.10059-2.26166-0.20117
		c-1.50793-0.20111-1.80963-1.30664-1.96002-2.76465c-0.25201-2.11078-0.25201-6.08148-0.25201-10.90668v-21.26129
		c2.11139,0.05029,4.22272,0.05029,6.33313,0.10059c4.82507,0.10059,6.03217,1.2569,6.18256,2.76471
		c0,0.20111,0.0498,0.3515,0.0498,0.55267c0.05084,0.70361,0.15131,0.85455,0.40234,0.85455
		c0.20117,0,0.35156-0.20123,0.35156-0.65332c0-0.5528,0.15131-4.021,0.15131-5.52881
		C73.06879,112.78558,73.06879,112.48431,72.81787,112.48431z"/>
	<path class="st8" d="M158.00098,150.1308c-0.40137,0-1.20612-0.05029-1.95996-0.3017
		c-1.0556-0.30182-2.51276-1.10602-4.3222-5.5791c-3.06653-7.63971-10.95709-28.3985-11.711-30.30811
		c-0.60352-1.55811-0.80475-1.80957-1.10645-1.80957c-0.30176,0-0.50195,0.3017-1.10547,1.96039l-11.40869,31.21289
		c-0.90533,2.51318-1.9101,4.42291-4.2226,4.72461c-0.4024,0.05029-0.85449,0.10059-1.20612,0.10059
		c-0.03833,0-0.06653,0.00494-0.10193,0.00641c-0.01508-0.0011-0.02808-0.00641-0.04358-0.00641
		c-0.30182,0-1.00592,0-1.95996-0.15088c-1.25684-0.20111-3.41791-0.75391-6.13281-3.61914
		c-2.91504-3.11615-6.33301-7.58936-10.4541-12.86719c4.5235-4.17139,6.08197-7.89111,6.08197-11.61029
		c0-3.46832-2.21191-5.93121-3.46869-6.836c-2.66412-1.90961-6.03131-2.21136-9.19818-2.21136
		c-1.55774,0-5.37805,0.15088-5.93073,0.15088c-0.25098,0-3.41797-0.15088-5.67969-0.15088
		c-0.55273,0-0.80371,0.10059-0.80371,0.40228c0,0.20068,0.20117,0.30127,0.40143,0.30127
		c0.45306,0,1.30756,0.05029,1.70886,0.15094c1.65924,0.35199,2.06165,1.15619,2.16119,2.86469
		c0.10065,1.6084,0.10065,3.01617,0.10065,10.85699v8.84619c0,4.8252,0,8.7959-0.25104,10.90668
		c-0.20117,1.45801-0.45221,2.56354-1.45697,2.76465c-0.45319,0.10059-1.05573,0.20117-1.50885,0.20117
		c-0.30078,0-0.40137,0.15039-0.40137,0.30133c0,0.3017,0.25098,0.40228,0.80371,0.40228c1.50781,0,4.6748-0.15082,4.72461-0.15082
		c0.25195,0,3.41797,0.15082,6.18256,0.15082c0.5528,0,0.80371-0.15082,0.80371-0.40228c0-0.15094-0.10046-0.30133-0.40131-0.30133
		c-0.45306,0-1.55859-0.10059-2.26166-0.20117c-1.50793-0.20111-1.80963-1.30664-1.961-2.76465
		c-0.25104-2.11078-0.25104-6.08148-0.25104-10.90668v-1.2066c0-0.25098,0.10059-0.40179,0.35162-0.40179l6.18256,0.10052
		c0.30182,0,0.45221,0.10059,0.65332,0.30127c1.00494,1.30713,3.36719,4.6748,5.47864,7.43903
		c2.86517,3.76996,4.62396,6.23236,6.7851,7.38867c1.30756,0.70361,2.56348,0.95502,5.37787,0.95502h3.5694
		c0.27863,0,0.4834-0.0141,0.65643-0.03613c0.13599,0.02203,0.29272,0.03613,0.49396,0.03613
		c2.3623,0,5.12689-0.15082,5.67969-0.15082c0.55273,0,2.56342,0.15082,3.76953,0.15082c0.45312,0,0.90533-0.10059,0.90533-0.40228
		c0-0.20074-0.15143-0.30133-0.65344-0.30133c-0.15131,0-0.3017,0-0.45209,0c-0.85449,0-1.80963-0.45258-1.80963-1.45801
		c0-0.9043,0.25104-2.11078,0.70325-3.36719l3.01556-8.89648c0.1001-0.2514,0.2514-0.40228,0.50244-0.40228h10.8067
		c0.25085,0,0.3515,0.10059,0.45209,0.30176l4.6748,12.3642c0.30078,0.80469,0,1.25684-0.3017,1.35742
		c-0.20123,0.05029-0.3526,0.15088-0.3526,0.35162c0,0.30176,0.55365,0.30176,1.50879,0.35199
		c3.46777,0.10059,7.13666,0.10059,7.89056,0.10059c0.5528,0,1.00592-0.10059,1.00592-0.40228
		C158.55469,150.18109,158.30267,150.1308,158.00098,150.1308z M101.06012,132.2373
		c-1.15631,0.8042-2.56354,0.95502-3.77051,0.95502c-2.211,0-4.5235-0.35199-5.2774-0.8042
		c-0.25104-0.15082-0.35162-0.35199-0.35162-0.60303v-16.43597c0-0.30182,0.15039-0.5025,0.4024-0.60303
		c0.50189-0.15088,1.85938-0.30176,3.36719-0.30176c5.37793,0,8.69531,3.76947,8.69531,10.05267
		C104.12549,128.31689,102.81879,131.0307,101.06012,132.2373z M143.02338,134.1972h-9.60046
		c-0.15045,0-0.25104-0.1001-0.15045-0.3515l4.42285-13.5708c0.25098-0.75391,0.50287-0.75391,0.75391,0l4.77539,13.5708
		C143.27441,134.04681,143.27441,134.1972,143.02338,134.1972z"/>
	<path class="st8" d="M190.16602,112.48431c-0.20123,0-0.6543,0.15039-1.4082,0.25098
		c-0.80371,0.15094-1.9599,0.25153-3.5683,0.25153h-18.84875c-0.60248,0-2.5127-0.10059-3.97064-0.25153
		c-1.35645-0.10059-1.85944-0.60297-2.21094-0.60297c-0.20117,0-0.4024,0.65326-0.50287,0.95508
		c-0.10065,0.40179-1.10553,4.72461-1.10553,5.22699c0,0.30182,0.10059,0.4527,0.25104,0.4527
		c0.20105,0,0.35144-0.10059,0.50287-0.50299c0.15039-0.3515,0.3017-0.70361,0.85449-1.55811
		c0.80371-1.20599,2.0097-1.55811,5.12689-1.6084c2.46295-0.05029,4.97565-0.05029,7.43854-0.10059v21.26129
		c0,4.8252,0,8.7959-0.25104,10.90668c-0.20111,1.45801-0.45306,2.56354-1.45801,2.76465
		c-0.45209,0.10059-1.05554,0.20117-1.50775,0.20117c-0.3017,0-0.40234,0.15039-0.40234,0.30133
		c0,0.3017,0.25092,0.40228,0.80475,0.40228c1.50781,0,4.67377-0.15082,4.92566-0.15082c0.25104,0,3.41699,0.15082,6.1817,0.15082
		c0.55273,0,0.80469-0.15082,0.80469-0.40228c0-0.15094-0.10059-0.30133-0.4024-0.30133c-0.45209,0-1.55859-0.10059-2.26166-0.20117
		c-1.50781-0.20111-1.80963-1.30664-1.96002-2.76465c-0.25189-2.11078-0.25189-6.08148-0.25189-10.90668v-21.26129
		c2.11133,0.05029,4.2226,0.05029,6.33301,0.10059c4.8252,0.10059,6.03217,1.2569,6.18262,2.76471
		c0,0.20111,0.0498,0.3515,0.0498,0.55267c0.05078,0.70361,0.15137,0.85455,0.40234,0.85455
		c0.20111,0,0.35254-0.20123,0.35254-0.65332c0-0.5528,0.15039-4.021,0.15039-5.52881
		C190.41699,112.78558,190.41699,112.48431,190.16602,112.48431z"/>
	<path class="st8" d="M222.5791,144.04883c-0.25104,0-0.35162,0.20117-0.45209,0.75391
		c-0.40143,2.16156-0.95514,3.2168-2.56354,3.71967c-1.35651,0.40192-3.01556,0.45221-4.5235,0.45221
		c-1.9599,0-3.31726-0.10059-4.17181-0.45221c-1.25586-0.50287-1.55768-1.6084-1.65814-3.66937c-0.05084-1.05524,0-6.8858,0-8.59473
		v-4.4234c0-0.20068,0.10046-0.3515,0.35144-0.3515c0.85455,0,5.83014,0.10052,7.18756,0.2514
		c1.80957,0.20068,2.41309,0.9043,2.61328,1.65869c0.15137,0.45221,0.20117,0.95459,0.20117,1.40723
		c0,0.40192,0.05078,0.8042,0.35254,0.8042c0.20117,0,0.30078-0.2514,0.35156-0.75391c0.0498-0.70361,0.0498-1.8598,0.20123-3.41791
		c0.15027-1.65869,0.40228-2.51318,0.40228-2.815c0-0.30121-0.10059-0.40179-0.25201-0.40179
		c-0.20105,0-0.3515,0.20111-0.60248,0.50238c-0.50293,0.60352-1.15619,0.75391-2.51373,0.85449
		c-1.15619,0.10065-7.33789,0.10065-7.99121,0.10065c-0.25189,0-0.30164-0.15094-0.30164-0.5025v-13.8725
		c0-0.35211,0.10046-0.5025,0.30164-0.5025c0.55286,0,6.03137,0.05029,6.8858,0.15039
		c2.21094,0.20117,3.2666,0.7041,3.61914,1.85986c0.15039,0.40234,0.25098,1.00543,0.25098,1.65875
		c0,0.40228,0.10059,0.65326,0.40228,0.65326c0.20123,0,0.35162-0.3515,0.40143-0.85449
		c0.10059-1.30658,0.15143-2.26172,0.20117-3.01556c0.10052-1.40723,0.40234-2.01031,0.40234-2.3623
		c0-0.25153-0.0498-0.45221-0.20123-0.45221c-0.15039,0-0.25085,0.05029-0.55267,0.20068
		c-0.30182,0.15088-1.20612,0.25153-2.3125,0.30182c-1.15533,0.05029-11.1582,0.05029-11.50983,0.05029
		c-3.16595-0.15088-4.52338-0.15088-5.67969-0.15088c-0.55267,0-0.80371,0.10059-0.80371,0.40228
		c0,0.20068,0.30084,0.25098,0.65344,0.30127c0.45209,0.05029,1.10541,0.05029,1.45697,0.15094
		c1.65918,0.35199,2.06152,1.15619,2.16211,2.86469c0.09961,1.6084,0.09961,3.01617,0.09961,10.85699v8.84619
		c0,4.47308-0.0498,7.03662-0.09961,8.99701c-0.10059,3.76959-0.75488,4.47321-1.80963,4.72461
		c-0.35248,0.10059-0.65326,0.10059-1.15619,0.15088c-0.30176,0.05029-0.5528,0.15039-0.5528,0.30133
		c0,0.3017,0.25104,0.40228,0.80383,0.40228c1.30658,0.05029,2.51355-0.15082,3.71967-0.15082
		c1.9599,0,4.2724,0.10052,6.28223,0.15082c1.96088,0.05029,3.61908,0.15088,7.33887,0.15088c1.9599,0,2.3623,0,2.71381-1.30707
		c0.25201-1.05524,0.65338-4.47321,0.65338-4.87549C222.88086,144.45111,222.88086,144.04883,222.5791,144.04883z"/>
	<path class="st8" d="M270.5752,131.98578c-1.50781,0-4.6748,0.15094-4.92578,0.15094c-0.25195,0-3.41803-0.15094-5.67975-0.15094
		c-0.55267,0-0.80469,0.10065-0.80469,0.40234c0,0.20068,0.20123,0.30127,0.4024,0.30127c0.45209,0,1.30664,0.05029,1.70898,0.15094
		c2.01074,0.55316,2.26172,1.10596,2.26172,5.17719v8.54449c0,0.85449-0.35162,1.40717-1.00488,1.75928
		c-1.30664,0.75391-3.9209,1.0556-5.73053,1.0556c-4.62396,0-9.19818-1.50781-13.16888-5.37836
		c-1.75879-1.70905-5.32721-6.83551-5.32721-13.92242c0-5.8808,2.06061-10.45459,4.97559-12.7666
		c3.82031-3.01611,7.5899-3.31738,10.75592-3.31738c6.48438,0,10.55573,2.16119,11.8125,4.07129
		c0.75391,1.20612,1.00488,2.61328,1.05469,3.31689c0.05084,0.4527,0.10059,0.75439,0.35254,0.75439
		c0.35156,0,0.45221-0.2514,0.45221-1.0556c0-5.02637,0.35144-6.43359,0.35144-7.13721c0-0.20117-0.10059-0.4024-0.60248-0.4527
		c-1.2569-0.05029-3.01562-0.25098-4.07129-0.50238c-0.95508-0.20123-4.52344-0.85449-7.69043-0.85449
		c-3.87018,0-8.84668,0.35199-13.37018,3.1665c-4.4726,2.81439-8.39349,8.49408-8.39349,16.53607
		c0,6.2832,2.91498,11.66119,5.98138,14.3252c5.5791,4.87549,12.71588,5.37793,16.53619,5.37793
		c2.91504,0,7.43842-0.55273,10.65521-2.26172c0.60364-0.35199,0.65338-0.45258,0.65338-2.71429v-5.62939
		c0-2.1109,0-3.61871,0.10065-5.22711c0.10046-1.75922,0.50287-2.61371,1.86029-2.86517
		c0.60248-0.10065,0.9043-0.15094,1.25586-0.15094c0.20111,0,0.40234-0.10059,0.40234-0.30127
		C271.37891,132.08643,271.12787,131.98578,270.5752,131.98578z"/>
	<path class="st8" d="M312.53906,112.83594c-0.95508,0-4.57428,0.15088-4.87598,0.15088c-0.40143,0-2.00983-0.15088-3.31738-0.15088
		c-0.50189,0-0.80371,0.10059-0.80371,0.30176c0,0.25092,0.30182,0.3515,0.75391,0.50244
		c0.60352,0.15088,0.80371,0.70355,0.80371,1.40717c0,0.65381-0.2002,1.50781-0.85455,2.56348
		c-1.00488,1.65875-7.3877,12.66602-8.34277,14.77734c-0.90521-1.45752-8.44427-14.42523-9.24902-15.8833
		c-0.40125-0.75391-0.65326-1.35693-0.65326-1.9599c0-0.4024,0.25201-0.70361,0.65326-0.90479
		c0.45312-0.20123,0.75391-0.25153,0.75391-0.45221c0-0.20111-0.09961-0.35199-0.65326-0.35199
		c-1.96002,0-3.87012,0.15088-4.22174,0.15088c-0.25085,0-4.02148-0.15088-4.97559-0.15088
		c-0.45306,0-0.6543,0.15088-0.6543,0.35199c0,0.25098,0.25201,0.35156,0.50299,0.35156c0.45209,0,1.40723,0.30182,2.16113,0.8042
		c0.90527,0.60303,2.16107,1.85992,3.41797,3.71973c1.7597,2.61328,8.49414,13.67139,8.84674,14.47559
		c0.65326,1.45752,1.15515,2.56299,1.15515,5.2774v4.32269c0,0.8042,0,2.9151-0.15039,5.02588
		c-0.10046,1.45801-0.55267,2.56354-1.55762,2.76465c-0.45306,0.10059-1.0556,0.20117-1.50879,0.20117
		c-0.30066,0-0.40131,0.15039-0.40131,0.30133c0,0.3017,0.25092,0.40228,0.80371,0.40228c1.50781,0,4.6748-0.15082,4.92578-0.15082
		c0.25092,0,3.41791,0.15082,6.18262,0.15082c0.55273,0,0.80371-0.15082,0.80371-0.40228c0-0.15094-0.10059-0.30133-0.40143-0.30133
		c-0.45306,0-1.55853-0.10059-2.2627-0.20117c-1.50775-0.20111-1.95984-1.30664-2.06049-2.76465
		c-0.15039-2.11078-0.15039-4.22168-0.15039-5.02588v-4.32269c0-1.65869,0-3.2168,0.75391-5.02643
		c0.9043-2.16107,7.94141-13.97266,9.59961-15.9834c1.10638-1.35687,1.65918-1.95996,2.66406-2.56348
		c0.80475-0.50238,1.7597-0.70361,2.3125-0.70361c0.40234,0,0.65332-0.15088,0.65332-0.40179
		C313.19238,112.93652,312.89056,112.83594,312.53906,112.83594z"/>
</g>
<g>
	<path class="st3" d="M127.18311,167.91162l0.67871-0.1861c0.35156-0.82562,0.80469-1.76562,1.35938-2.81885
		c0.55267-1.05316,1.00592-1.82758,1.3584-2.32318c0-0.33008-0.20117-0.57819-0.60352-0.74371
		c-1.61139-0.78418-3.35938-1.33197-5.24707-1.6416c-1.88672-0.31006-3.73633-0.46478-5.54779-0.46478
		c-2.41614,0-4.73151,0.34082-6.94543,1.0224c-2.21478,0.6817-4.22748,1.60114-6.039,2.7569
		c-1.45996,0.90912-2.90631,2.02441-4.3399,3.3457c-1.43451,1.3222-2.73138,2.7475-3.8877,4.2749
		c-1.1582,1.52881-2.10248,3.11908-2.83099,4.77051c-0.73047,1.65277-1.09467,3.26361-1.09467,4.83252
		c0,16.77106,24.00067,12.71027,32.76166-1.92041c0.15131-0.20612,0.289-0.4234,0.41504-0.65039
		c0.125-0.22662,0.18945-0.50543,0.18945-0.83643c0-0.57819-0.10156-0.86768-0.3028-0.86768
		c-0.10059,0-0.2265,0.0835-0.37689,0.24799c-11.37122,16.40967-29.3653,18.11261-29.3653,5.69971
		c0-1.89941,0.4649-3.85101,1.39648-5.85449c0.93073-2.00293,2.10065-3.90332,3.5108-5.70013
		c1.4082-1.79688,2.90619-3.41699,4.49121-4.86328c1.5849-1.44531,3.00684-2.54059,4.26459-3.28369
		c1.10651-0.66022,2.2901-1.22852,3.54889-1.7041c1.25684-0.47412,2.61621-0.7124,4.07611-0.7124
		c1.81165,0,3.2832,0.16547,4.41602,0.49561c1.1319,0.33099,2.03809,0.76508,2.71777,1.30127
		c0.67871,0.53711,1.14362,1.13623,1.39655,1.79681c0.25098,0.66119,0.37701,1.30078,0.37701,1.92041
		c0,0.33112-0.03723,0.7124-0.11334,1.146C127.37158,167.38519,127.28271,167.70551,127.18311,167.91162z"/>
	<path class="st3" d="M176.95599,173.73529c0-0.87091-1.38989-1.3681-2.71191,0c-0.56268,0.58234-0.92719,1.315-1.354,1.89319
		c-0.24847,0.33533-0.41571,0.65497-0.51978,0.96228c-3.52466,5.86121-10.75616,10.77496-13.76404,10.77496
		c-0.55377,0-0.95605-0.09283-1.20709-0.27881c-0.25287-0.1861-0.37787-0.52692-0.37787-1.02252
		c0-0.57758,0.25098-1.36279,0.75488-2.354c0.50293-0.99121,1.11908-2.03418,1.84961-3.12891
		c0.72852-1.09369,1.49707-2.15765,2.30267-3.19086c0.80371-1.0318,1.4834-1.87891,2.03815-2.5401
		c0.25098-0.33002,0.37695-0.57764,0.37695-0.7431c0-0.16461-0.08789-0.34082-0.26367-0.52692
		c-0.17773-0.18597-0.36621-0.27881-0.56641-0.27881c-0.30182,0-0.84381,0.2168-1.62311,0.65039
		c-0.78119,0.43414-1.68646,0.98193-2.71771,1.64209c-1.03229,0.66113-2.11328,1.38434-3.24609,2.16852
		c-1.1319,0.7851-2.17676,1.52832-3.13281,2.23041c0.7041-1.27979,1.42181-2.4057,2.15131-3.37689
		c0.72949-0.96979,1.38751-2.21979,1.38751-2.38531c0-0.2475-0.12598-0.47406-0.37689-0.68158
		c-0.25299-0.20612-0.52838-0.30963-0.83112-0.30963c-0.30176,0-0.52826,0.10352-0.67871,0.30963
		c-0.60449,1.15717-1.62677,3.15039-2.48218,4.61621c-0.06384,0.10925-0.125,0.21124-0.18854,0.3197
		c-0.2074,0.15381-0.41833,0.30634-0.64154,0.45465c-1.05762,0.70264-2.24023,1.05322-3.54791,1.05322
		c-1.30951,0-2.22748-0.37201-2.7558-1.11517c-0.52832-0.74371-0.79303-1.69342-0.79303-2.8501
		c0-0.82574,0.04816-1.60065,0.26471-2.29254c0.42853-1.36908-1.52148-1.36908-2.67969,0.18604
		c-1.56061,0.12408-3.01959,0.51709-4.37891,1.17731c-1.3584,0.66107-2.56641,1.46625-3.62311,2.41595
		c-0.50439,0.41364-1.04541,0.95074-1.62347,1.61084c-0.5791,0.66119-1.12012,1.36328-1.62311,2.10651
		c-0.50391,0.74359-0.91888,1.5083-1.24512,2.29248c-0.32806,0.7851-0.49115,1.54877-0.49115,2.29248
		c0,1.3222,0.90625,1.98242,2.71777,1.98242c0.60352,0,1.3584-0.16553,2.26508-0.49561c1.0567-0.4541,2.0498-1.0318,2.98151-1.73492
		c0.9306-0.70166,1.77441-1.47607,2.5293-2.32318c0.75482-0.84619,1.4082-1.69287,1.96289-2.5401
		c0.55273-0.84619,1.0058-1.6001,1.35846-2.26117c0.50287,0.70258,1.16986,1.22894,2.00085,1.57959
		c0.83014,0.3515,1.67194,0.52679,2.52838,0.52679c1.55951,0,2.95605-0.38129,4.18945-1.14642
		c0.03558-0.02203,0.06732-0.04596,0.1026-0.06812c-0.61237,1.03748-1.2157,2.05017-1.80084,3.01093
		c-0.75488,0.78522-1.44727,1.49762-2.07617,2.1377c-0.62988,0.64062-0.94342,1.146-0.94342,1.51813
		c0,0.12347,0.08691,0.41309,0.26471,0.86719c0.17578,0.45508,0.38867,0.68158,0.6416,0.68158
		c0.09961,0,0.25098-0.12396,0.45209-0.37207c0.85553-1.07324,1.5733-2.04443,2.1524-2.91162
		c0.57709-0.86761,1.26953-1.81738,2.0752-2.8501c0.45312-0.4541,1.04388-0.97021,1.77441-1.54883
		c0.72852-0.57806,1.4834-1.146,2.26459-1.70355c0.7793-0.55762,1.54694-1.08453,2.30182-1.58014s1.40918-0.8877,1.96289-1.17719
		c0.25189-0.12408,0.41498-0.11328,0.49121,0.03119c0.0752,0.14502,0.0625,0.32031-0.03809,0.52643
		c-0.45312,0.86768-1.04492,1.81787-1.77344,2.8501c-0.73047,1.03271-1.43457,2.04437-2.11426,3.03558
		c-0.67975,0.99121-1.27155,1.93121-1.77344,2.81891c-0.50391,0.8891-0.75488,1.62158-0.75488,2.19971
		c0,0.57806,0.25098,0.9389,0.75488,1.08398c0.50189,0.14453,1.05658,0.21722,1.6601,0.21722
		c2.3642,0,5.01874-1.06567,7.5188-2.65375c0.36902,1.59967,2.03375,2.4057,5.01752,2.4057
		c0.50287,0,1.18262-0.07275,2.03809-0.2168c0.85541-0.14551,1.69922-0.42328,2.5293-0.83636
		c0.83002-0.4126,1.54779-0.96051,2.15131-1.64209c0.60358-0.68121,0.90631-1.55811,0.90631-2.63281
		c0-2.08691-2.22443-4.89032-2.66943-5.97552c-0.15778-0.38477-0.37787-0.66016-0.37787-0.99121
		C173.90869,173.51691,176.95599,174.69769,176.95599,173.73529z M140.75366,179.74512
		c-0.62988,1.07471-1.39648,2.1377-2.30267,3.19086c-0.90527,1.05322-1.8623,1.97272-2.86823,2.75684
		c-1.00775,0.78522-1.93848,1.17731-2.7934,1.17731c-0.45319,0-0.74316-0.12402-0.86816-0.37158
		c-0.12604-0.24811-0.18854-0.51611-0.18854-0.80573c-0.05078-0.94971,0.18854-1.9516,0.7168-3.00488
		c0.52832-1.05322,1.11963-2.03363,1.77393-2.94281c0.50299-0.70172,1.05768-1.3833,1.66119-2.04449
		c0.60352-0.6601,1.20801-1.24902,1.81152-1.76562c0.60449-0.51611,1.20801-0.92969,1.81146-1.2392
		c0.60449-0.30957,1.18262-0.4649,1.73633-0.4649c0.20117,0,0.3028,0.10352,0.3028,0.31012c0,0.45508,0.02441,0.9292,0.0752,1.4248
		c0.0498,0.49561,0.125,0.9292,0.2265,1.30127C141.74689,177.8457,141.38257,178.67133,140.75366,179.74512z M174.76648,184.20599
		c0,0.7027-0.1767,1.26031-0.52832,1.67291c-0.35248,0.41309-0.76758,0.73389-1.24609,0.9599
		c-0.47845,0.2276-0.99408,0.37207-1.54688,0.43408c-0.55463,0.06201-1.03217,0.09283-1.43451,0.09283
		c-0.95709,0-1.78711-0.26813-2.49121-0.80573c-0.70508-0.53607-1.18268-1.1767-1.43457-1.92041
		c-0.0415-0.13446-0.10376-0.20007-0.17847-0.22485c2.63562-1.95782,4.96533-4.39728,6.41132-6.6424
		c0.07025,0.29248,0.19312,0.57062,0.38293,0.82977C173.00342,179.01569,174.76648,183.66992,174.76648,184.20599z"/>
	<path class="st3" d="M207.20709,168.22162c0.65332,0,1.24512-0.24799,1.77338-0.74359
		c0.52844-0.49561,0.79303-0.99121,0.79303-1.48682c0-0.53662-0.32812-0.80573-0.98138-0.80573
		c-0.70514,0-1.2959,0.24811-1.77441,0.74371c-0.47864,0.49561-0.7168,1.0127-0.7168,1.54883
		C206.3009,167.97363,206.6026,168.22162,207.20709,168.22162z"/>
	<path class="st3" d="M224.72357,161.7099c-3.18677,4.21472-6.81927,9.60632-9.91431,13.8869
		c-1.31396,1.8175-2.63696,3.68835-3.74408,5.65778c-0.17352,0.15466-0.34717,0.30945-0.5368,0.4729
		c-1.00781,0.86774-2.10248,1.69434-3.28418,2.47852c-1.18262,0.78522-2.37793,1.45612-3.58594,2.01373
		c-1.20709,0.55756-2.31445,0.83636-3.32129,0.83636c-0.55371,0-0.9942-0.11328-1.32031-0.34076
		c-0.32806-0.22662-0.49115-0.58893-0.49115-1.08453c0-0.4541,0.16309-1.07318,0.49115-1.8584
		c0.32611-0.78418,0.7666-1.64209,1.32031-2.57129s1.16992-1.88959,1.84961-2.8808s1.72272-2.64313,2.37793-3.46979
		c0.09955-0.08252,0.18848-0.20599,0.26367-0.37152c0.0752-0.16461,0.11328-0.28857,0.11328-0.37207
		c0-0.12402-0.12598-0.18561-0.37695-0.18561c-0.20215,0-0.61725,0.11426-1.24615,0.34039
		c-0.62976,0.22748-1.06927,0.50629-1.32129,0.83636c-0.40326,0.45514-1.32025,1.88043-2,2.78864
		c-0.67871,0.90869-1.3584,1.8584-2.03796,2.84961c-0.0451,0.0658-0.08228,0.12885-0.12659,0.1944
		c-0.39978,0.36719-0.83667,0.74603-1.3139,1.13757c-0.98151,0.80573-2.05084,1.54883-3.20813,2.23053
		c-1.1582,0.68158-2.35352,1.25-3.58588,1.7041c-1.2334,0.45459-2.42871,0.68109-3.58594,0.68109
		c-1.8623,0-2.79297-0.84613-2.79297-2.54004c0-0.82568,0.15137-1.6416,0.45306-2.44727
		c0.30182-0.80511,0.57825-1.39398,0.83014-1.76562c1.61041,0,2.99408-0.17529,4.1524-0.52679
		c1.15717-0.3501,2.11316-0.78418,2.8681-1.30078c0.75488-0.51611,1.32129-1.06299,1.6983-1.64209
		c0.37787-0.57764,0.56635-1.11523,0.56635-1.6109c0-0.33002-0.13867-0.59814-0.41504-0.80511
		c-0.27734-0.2066-0.76764-0.31012-1.47174-0.31012c-1.25867,0-2.58002,0.38232-3.96381,1.14655
		c-1.38477,0.76459-2.6543,1.71436-3.81146,2.84955c-1.1582,1.13672-2.1026,2.37604-2.83112,3.71735
		c-0.73053,1.34277-1.09473,2.59277-1.09473,3.74847c0,1.73492,1.18164,2.60211,3.54785,2.60211
		c1.45898,0,2.93164-0.23834,4.41595-0.7124c1.48444-0.47412,2.91803-1.09381,4.3028-1.85889
		c1.38379-0.76373,2.66699-1.6109,3.85059-2.5401c0.1817-0.14288,0.35229-0.28363,0.52625-0.42505
		c-0.28076,0.45819-0.54419,0.91028-0.784,1.35425c-0.50391,0.92969-0.75494,1.66357-0.75494,2.19977
		c0,0.45502,0.11334,0.81592,0.3399,1.08392c0.2265,0.26959,0.50189,0.48639,0.83014,0.65088
		c0.32709,0.16553,0.69141,0.2691,1.09467,0.30963c0.40234,0.0415,0.75494,0.06195,1.05664,0.06195
		c0.85547,0,1.81158-0.14398,2.86816-0.43359c1.05762-0.28857,2.08789-0.70209,3.0957-1.23926
		c1.30762-0.7016,2.74219-1.63135,4.30273-2.78802c0.51971-0.38519,1.01263-0.77997,1.49335-1.17908
		c-0.06006,0.1181-0.13049,0.23175-0.1886,0.35065c-0.80719,1.65125-1.17908,3.86493,0.96503,4.67725
		c3.65759,1.3858,8.31409-1.06244,11.30902-2.99622c1.79889-1.16162,3.4682-2.49658,5.05945-3.92712
		c0.54694-0.49158,1.54144-1.14215,1.86853-1.81158c0.35339-0.72327-1.10718,0.49634-1.1817,0.56671
		c-2.9278,2.7652-6.21466,5.4444-10.02557,6.8772c-1.31696,0.49518-3.99573,1.33472-5.15521,0.07428
		c-0.95874-1.04199-0.26752-2.89636,0.21259-3.98785c1.6438-3.73663,4.21863-6.94666,6.50629-10.29175
		c3.88922-1.75079,7.51941-3.99945,10.88983-6.6087c3.32806-2.57635,6.03821-5.69366,7.14709-7.49976
		c0.7597-1.23712,1.8407-2.83783,1.8407-4.34479C239.7594,149.77948,231.73169,152.4411,224.72357,161.7099z M186.06348,177.63861
		c0.45312-0.57812,0.9306-1.11523,1.43451-1.61078c0.50201-0.49561,1.01862-0.89844,1.54688-1.20801
		c0.52832-0.31012,1.04401-0.4649,1.54791-0.4649c0.65332,0,0.98145,0.2691,0.98145,0.80566
		c0,1.15674-0.55475,2.15875-1.66113,3.00494c-1.10742,0.84668-2.39062,1.26996-3.84961,1.26996
		c-0.15137,0-0.3526-0.00977-0.60449-0.03119c-0.25201-0.02008-0.42767-0.05127-0.52832-0.09277
		C185.2334,178.77539,185.61041,178.21771,186.06348,177.63861z M237.03802,154.66382
		c-0.78613,5.75769-11.46033,13.97919-16.55176,16.3454c3.62201-4.77148,6.00525-8.45081,9.06274-12.02313
		C233.93359,153.8631,237.58331,150.66949,237.03802,154.66382z"/>
</g>
<g>
	<line class="st9" x1="16.75619" y1="96.43" x2="129.64749" y2="96.43"/>
	<line class="st9" x1="199.22668" y1="96.43" x2="312.11801" y2="96.43"/>
</g>
</svg>
