<?xml version="1.0" encoding="utf-8"?>
<!-- Generator: Adobe Illustrator 24.1.2, SVG Export Plug-In . SVG Version: 6.00 Build 0)  -->
<svg version="1.1" id="Calque_1" xmlns="http://www.w3.org/2000/svg" xmlns:xlink="http://www.w3.org/1999/xlink" x="0px" y="0px"
	 viewBox="0 0 231.5117 78.1462" style="enable-background:new 0 0 231.5117 78.1462;" xml:space="preserve">
<style type="text/css">
	.st0{fill:#1D71B8;}
	.st1{fill:#36A9E1;}
</style>
<path class="st0" d="M104.5649,63.2362h0.7333l-2.1224,5.672l-1.6201-4.1979l-1.6206,4.1979l-2.1224-5.672h0.7333l1.4352,3.9744
	l1.5745-4.2448l1.6051,4.2448L104.5649,63.2362z"/>
<path class="st0" d="M108.035,63.2362v5.4016h-0.6558v-5.4016H108.035z"/>
<path class="st0" d="M110.1176,63.2362h3.4341v0.6169h-1.3891v4.7847h-0.6558v-4.7847h-1.3891V63.2362z"/>
<path class="st0" d="M116.2893,63.2362v2.1605h2.9712v-2.1605h0.6558v5.4016h-0.6558v-2.6234h-2.9712v2.6234h-0.6558v-5.4016
	H116.2893z"/>
<path class="st0" d="M151.1271,63.2362h3.4341v0.6169h-1.3891v4.7847h-0.6559v-4.7847h-1.3891V63.2362z"/>
<path class="st0" d="M157.2988,63.2362v2.1605h2.9712v-2.1605h0.6558v5.4016H160.27v-2.6234h-2.9712v2.6234h-0.6559v-5.4016
	H157.2988z"/>
<path class="st0" d="M166.5648,67.0173h-2.176l-0.6868,1.6206h-0.7333l2.5079-5.672l2.5083,5.672h-0.7333L166.5648,67.0173z
	 M164.6512,66.4004h1.6511l-0.8258-1.9454L164.6512,66.4004z"/>
<path class="st0" d="M174.7735,63.2362v5.672l-4.0899-4.2908v4.0205h-0.6559v-5.672l4.09,4.2908v-4.0205H174.7735z"/>
<path class="st0" d="M185.843,63.2362v5.672l-4.0895-4.2908v4.0205h-0.6558v-5.672l4.0899,4.2908v-4.0205H185.843z"/>
<path class="st0" d="M190.8956,63.1592c1.5745,0,2.7397,1.2037,2.7397,2.7774c0,1.5745-1.1652,2.7782-2.7397,2.7782
	c-1.5737,0-2.7397-1.2037-2.7397-2.7782C188.1558,64.3629,189.3219,63.1592,190.8956,63.1592z M190.8956,68.0594
	c1.1811,0,2.045-0.9032,2.045-2.1228c0-1.2188-0.8639-2.122-2.045-2.122c-1.1803,0-2.045,0.9032-2.045,2.122
	C188.8506,67.1562,189.7153,68.0594,190.8956,68.0594z"/>
<path class="st0" d="M195.1764,63.2362h3.4337v0.6169h-1.3887v4.7847h-0.6563v-4.7847h-1.3887V63.2362z"/>
<path class="st0" d="M201.3481,63.2362v2.1605h2.9716v-2.1605h0.6554v5.4016h-0.6554v-2.6234h-2.9716v2.6234h-0.6554v-5.4016
	H201.3481z"/>
<path class="st0" d="M208.2523,63.2362v5.4016h-0.6554v-5.4016H208.2523z"/>
<path class="st0" d="M215.621,63.2362v5.672l-4.0899-4.2908v4.0205h-0.6554v-5.672l4.0899,4.2908v-4.0205H215.621z"/>
<path class="st0" d="M220.7506,65.8981h2.5079c0,1.4975-0.9333,2.8167-2.5849,2.8167c-1.5737,0-2.7397-1.1652-2.7397-2.7782
	c0-1.6122,1.166-2.7774,2.7397-2.7774c0.9953,0,1.783,0.401,2.2459,1.1493l-0.4629,0.4244
	c-0.3399-0.5709-0.9568-0.9183-1.783-0.9183c-1.1418,0-2.045,0.8647-2.045,2.122c0,1.2581,0.9032,2.1228,2.045,2.1228
	c1.0731,0,1.6976-0.7023,1.875-1.5436h-1.798V65.8981z"/>
<g>
	<path class="st1" d="M126.8967,63.2362v4.7847h2.122v0.6169h-2.7778v-5.4016H126.8967z"/>
	<path class="st1" d="M134.1876,63.2362v0.6169h-2.4309v1.5436h2.2764v0.6178h-2.2764v2.0065h2.4309v0.6169h-3.0867v-5.4016
		H134.1876z"/>
	<path class="st1" d="M138.36,68.0979c0.5788,0,0.9572-0.3549,0.9572-0.8488c0-0.7257-0.5788-0.9492-1.1962-1.1736
		c-0.5403-0.1925-1.4276-0.5399-1.4276-1.5201c0-0.8019,0.6483-1.3962,1.5666-1.3962c0.8718,0,1.4197,0.5709,1.6896,1.1342
		l-0.5629,0.324c-0.2084-0.401-0.5328-0.8337-1.1656-0.8337c-0.5864,0-0.8408,0.3399-0.8408,0.6872
		c0,0.4554,0.3009,0.7718,1.2502,1.0957c0.5784,0.2009,1.3657,0.6253,1.3657,1.6047c0,0.9417-0.8023,1.5436-1.6591,1.5436
		c-0.8798,0-1.5821-0.6404-1.929-1.3577l0.5244-0.3549C137.2953,67.6576,137.7121,68.0979,138.36,68.0979z"/>
	<path class="st1" d="M143.9764,68.0979c0.5788,0,0.9572-0.3549,0.9572-0.8488c0-0.7257-0.5788-0.9492-1.1962-1.1736
		c-0.5403-0.1925-1.4276-0.5399-1.4276-1.5201c0-0.8019,0.6483-1.3962,1.5666-1.3962c0.8718,0,1.4197,0.5709,1.6896,1.1342
		l-0.5634,0.324c-0.208-0.401-0.5324-0.8337-1.1652-0.8337c-0.5864,0-0.8408,0.3399-0.8408,0.6872
		c0,0.4554,0.3009,0.7718,1.2502,1.0957c0.5784,0.2009,1.3657,0.6253,1.3657,1.6047c0,0.9417-0.8023,1.5436-1.6591,1.5436
		c-0.8798,0-1.5821-0.6404-1.929-1.3577l0.5244-0.3549C142.9116,67.6576,143.3285,68.0979,143.9764,68.0979z"/>
</g>
<path class="st1" d="M90.6269,55.5013c-0.0621,0.0154-0.1189,0.0262-0.1859,0.0458c-0.9478,6.493-7.0388,11.5025-7.0388,11.5025
	s-5.8013-5.3422-6.3846-11.8781c-0.0479-0.0175-0.0881-0.027-0.1335-0.0418l-1.6175,3.1785
	c0.4009,8.3412,7.9532,15.2606,7.9532,15.2606s8.2742-6.7759,8.8409-15.3453L90.6269,55.5013z"/>
<path class="st1" d="M56.9294,57.3053h15.4814l3.9932-7.8467h14.4307l4.1333,7.8467h15.4116L83.6896,4.9752L56.9294,57.3053z
	 M78.8556,39.3717l4.834-10.9287l4.7637,10.9287H78.8556z"/>
<g>
	<path class="st0" d="M53.5599,57.3053l0.6985-1.3659l4.215-8.2424V20.4567h10.4534l6.3658-12.1973L33.3549,8.2677
		c-1.3525-0.0186-3.0773,0-5.3273,0c-9.8774,0-18.0039,5.1273-18.0039,14.0819c0,9.4335,8.4067,13.3983,13.1704,15.1759
		c7.5654,2.8026,9.5269,3.8279,9.5269,6.5619c0,2.5291-2.2417,3.8279-5.1836,3.8279c-4.6938,0-8.8267-3.0074-11.769-8.0656
		l-9.2471,6.5619c3.2227,7.1098,11.4888,12.715,21.5762,12.715c6.7406,0,13.3345-2.5998,16.7157-7.6452v5.8239H53.5599z
		 M34.6126,28.7753c-6.3047-2.1875-10.7853-2.5067-10.6614-5.5802c0.0963-2.3887,4.3297-2.7384,7.1315-2.7384h13.7305v15.2488
		C42.6109,32.5018,39.0046,30.2447,34.6126,28.7753z"/>
	<path class="st0" d="M222.4348,55.9394l2.335-4.5662l-8.2671-12.0718c6.375-2.6621,9.3872-7.9863,9.3872-14.6411
		c0-9.5977-6.3745-16.3926-19.8247-16.3926h-18.8639h-0.4008H146.271h-0.1908h-19.0738c-13.4502,0-19.8252,6.7949-19.8252,16.3926
		c0,6.6548,3.0117,11.979,9.3867,14.6411l-6.8795,10.046l3.3636,6.5949l0.6952,1.363h6.3939l9.5967-16.1826h2.9424v16.1826h13.5908
		V20.4567h13.5397v36.8486h13.6602V20.4567h13.3297v36.8486h13.5903V41.1227h2.9419l9.5977,16.1826h8.8058L222.4348,55.9394z
		 M132.6802,30.6847h-4.5537c-4.3428,0-6.7246-1.9614-6.7246-5.4644c0-3.5024,2.3818-5.4639,6.7246-5.4639h4.5537V30.6847z
		 M204.9441,30.6847h-4.5532V19.7565h4.5532c4.3433,0,6.7251,1.9614,6.7251,5.4639
		C211.6692,28.7233,209.2874,30.6847,204.9441,30.6847z"/>
</g>
</svg>
